<?xml version="1.0" encoding="UTF-8"?>
<svg id="Layer_1" data-name="Layer 1" xmlns="http://www.w3.org/2000/svg" xmlns:xlink="http://www.w3.org/1999/xlink" viewBox="0 0 867.3 538.54">
  <defs>
    <style>
      .cls-1 {
        stroke: url(#linear-gradient-6);
      }

      .cls-1, .cls-2, .cls-3, .cls-4 {
        stroke-width: 10px;
      }

      .cls-1, .cls-2, .cls-3, .cls-4, .cls-5 {
        fill: none;
        stroke-linejoin: round;
      }

      .cls-2, .cls-5 {
        stroke: #fff;
      }

      .cls-3 {
        stroke: url(#linear-gradient-2);
      }

      .cls-6 {
        fill: url(#linear-gradient-5);
      }

      .cls-4 {
        stroke: url(#linear-gradient);
      }

      .cls-7 {
        fill: url(#linear-gradient-3);
      }

      .cls-8 {
        fill: #93278f;
      }

      .cls-9 {
        fill: url(#linear-gradient-4);
      }

      .cls-5 {
        stroke-width: 20px;
      }
    </style>
    <linearGradient id="linear-gradient" x1="2.79" y1="445.43" x2="863.72" y2="445.43" gradientUnits="userSpaceOnUse">
      <stop offset="0" stop-color="#e879f9"/>
      <stop offset="1" stop-color="#2563eb"/>
    </linearGradient>
    <linearGradient id="linear-gradient-2" y1="496.91" y2="496.91" xlink:href="#linear-gradient"/>
    <linearGradient id="linear-gradient-3" x1="32.62" y1="248.08" x2="814.92" y2="248.08" xlink:href="#linear-gradient"/>
    <linearGradient id="linear-gradient-4" x1="32.62" y1="248.08" x2="814.92" y2="248.08" xlink:href="#linear-gradient"/>
    <linearGradient id="linear-gradient-5" x1="32.62" y1="248.08" x2="814.92" y2="248.08" xlink:href="#linear-gradient"/>
    <linearGradient id="linear-gradient-6" y1="470.63" y2="470.63" xlink:href="#linear-gradient"/>
  </defs>
  <path class="cls-5" d="M5.59,475.92c30.7-20.69,79.81-46.92,140.91-47.73,85.07-1.13,110.49,48.11,195.45,48.86,91.12,.81,92.62-55.55,182.95-57.95,102.88-2.74,139.88,69.33,229.55,53.41,48.72-8.65,84.21-38.16,105.68-60.23"/>
  <path class="cls-4" d="M5.59,475.92c30.7-20.69,79.81-46.92,140.91-47.73,85.07-1.13,110.49,48.11,195.45,48.86,91.12,.81,92.62-55.55,182.95-57.95,102.88-2.74,139.88,69.33,229.55,53.41,48.72-8.65,84.21-38.16,105.68-60.23"/>
  <path class="cls-5" d="M5.59,527.4c30.7-20.69,79.81-46.92,140.91-47.73,85.07-1.13,110.49,48.11,195.45,48.86,91.12,.81,92.62-55.55,182.95-57.95,102.88-2.74,139.88,69.33,229.55,53.41,48.72-8.65,84.21-38.16,105.68-60.23"/>
  <path class="cls-3" d="M5.59,527.4c30.7-20.69,79.81-46.92,140.91-47.73,85.07-1.13,110.49,48.11,195.45,48.86,91.12,.81,92.62-55.55,182.95-57.95,102.88-2.74,139.88,69.33,229.55,53.41,48.72-8.65,84.21-38.16,105.68-60.23"/>
  <g>
    <g>
      <path class="cls-8" d="M330.7,11.86c-5.68,0-10.68,.67-15,2-1.36,.42-2.69,.95-4,1.59,5.16-2.3,11.61-3.5,19.36-3.58-.12,0-.24,0-.36,0Zm57.5,322.5l-6.73-123.63-78.41-126.23c-2.69-4.03-5.04-9.08-7.06-15.13-2.02-6.06-3.03-12.67-3.03-19.84,0-9.42,2.8-18.05,8.41-25.9,.18-.24,.35-.49,.54-.72-3.29,3.49-6.44,7.97-9.47,13.45-3.5,6.33-7.09,14.33-10.75,24l-71.5,188L139.2,60.36c-3.68-9.67-7.25-17.67-10.75-24-3.5-6.33-7.18-11.33-11-15-3.84-3.67-8-6.17-12.5-7.5-4.5-1.33-9.43-2-14.75-2-11.68,0-21.43,3.33-29.25,10-7.84,6.67-12.25,19-13.25,37l-15,275.5c-.34,7,.5,12.92,2.5,17.75,2,4.83,4.66,8.67,8,11.5,3.32,2.83,7.16,4.91,11.5,6.25,4.32,1.33,8.66,2,13,2,8.66,0,16.57-2.75,23.75-8.25,7.16-5.5,11.07-15.25,11.75-29.25l8-152.5,60.5,158.5c4.32,11.33,9.32,19.42,15,24.25,5.66,4.83,13.5,7.25,23.5,7.25s17.91-2.42,23.75-7.25c5.82-4.83,10.91-12.92,15.25-24.25l60.5-158.5,8,152.5c.66,14,4.57,23.75,11.75,29.25,7.16,5.5,15.07,8.25,23.75,8.25,4.32,0,8.66-.67,13-2,4.32-1.34,8.16-3.42,11.5-6.25,3.32-2.83,6-6.67,8-11.5,2-4.83,2.82-10.75,2.5-17.75Z"/>
      <path class="cls-8" d="M301.94,22.89c.5-.54,1-1.05,1.51-1.53,2.62-2.52,5.37-4.49,8.24-5.9-4.05,1.79-7.3,4.27-9.75,7.43Zm346.73,45.11c-9.83,5.67-14.75,14.34-14.75,26,0,1.52,.05,3,.16,4.44l8.66-13.94c2.69-4.03,5.05-9.08,7.06-15.13,.26-.79,.51-1.59,.74-2.4-.63,.33-1.26,.68-1.87,1.03Zm-69.83-44.71c-8.52,7.63-16.59,17.49-24.21,29.6l-82.06,131.83L391.18,52.89c-7.63-12.11-15.7-21.97-24.22-29.6-8.52-7.62-20.18-11.43-34.97-11.43-.31,0-.62,0-.93,0,11.5,.06,21.13,3.39,28.89,9.99,7.82,6.67,12.25,19,13.25,37l8.27,151.87,44.01,70.85v164.13c0,18.83,4.93,31.95,14.8,39.34,9.86,7.4,20.62,11.1,32.29,11.1,5.82,0,11.65-.9,17.48-2.69s10.99-4.59,15.47-8.41c4.48-3.8,8.08-8.96,10.77-15.47,2.69-6.49,4.03-14.46,4.03-23.87v-164.13l69.42-111.76c-7.62-7.84-13.8-17.54-18.57-29.07-5.17-12.5-7.75-28.08-7.75-46.75,0-16,3.17-29.91,9.5-41.75,6.33-11.83,15-21.66,26-29.5,5.88-4.19,12.31-7.78,19.29-10.77-1.41-.08-2.88-.12-4.39-.12-14.8,0-26.47,3.81-34.98,11.43Z"/>
      <path d="M801.42,197c-9-13.33-20.17-23.5-33.5-30.5-13.33-7-27.83-12.08-43.5-15.25-15.67-3.16-30.17-6.58-43.5-10.25-13.33-3.66-24.5-8.91-33.5-15.75-8.02-6.09-12.47-15.03-13.34-26.81l-44.34,71.38c.63,.66,1.27,1.3,1.93,1.93,8.5,8.17,18.17,14.59,29,19.25,10.83,4.67,21.92,8.5,33.25,11.5,11.33,3,22.42,5.67,33.25,8,10.83,2.34,20.5,5.25,29,8.75s15.33,8,20.5,13.5c5.17,5.5,7.75,12.92,7.75,22.25,0,17-5.75,28.84-17.25,35.5-11.5,6.67-26.08,10-43.75,10-15.67,0-28.83-1.33-39.5-4-10.67-2.66-19.83-5.5-27.5-8.5-7.67-3-14.42-5.83-20.25-8.5-5.83-2.66-11.58-4-17.25-4-16.33,0-24.5,8.34-24.5,25,0,10,4.17,18.75,12.5,26.25,8.33,7.5,18.92,13.67,31.75,18.5,12.83,4.84,26.75,8.5,41.75,11s29.33,3.75,43,3.75c18,0,35-1.75,51-5.25s30-9.41,42-17.75c12-8.33,21.42-19.33,28.25-33,6.83-13.66,10.25-30.66,10.25-51,0-24-4.5-42.66-13.5-56ZM644.42,23.63c5.6,7.85,8.41,16.48,8.41,25.9,0,6.24-.76,12.05-2.29,17.44,9.5-4.97,21.13-7.47,34.88-7.47,12,0,22.75,.84,32.25,2.5,9.5,1.67,18.08,3.59,25.75,5.75,7.67,2.17,14.67,4.09,21,5.75,6.33,1.67,12.33,2.5,18,2.5,16.33,0,24.5-8.33,24.5-25,0-10-4.25-18.25-12.75-24.75s-19-11.75-31.5-15.75-25.75-6.75-39.75-8.25-26.5-2.25-37.5-2.25c-17,0-32.92,1.84-47.75,5.5-6.9,1.7-13.39,3.87-19.46,6.48,12.45,.72,21.17,4.61,26.21,11.65Z"/>
    </g>
    <g>
      <path class="cls-7" d="M330.7,11.86c-5.68,0-10.68,.67-15,2-1.36,.42-2.69,.95-4,1.59,5.16-2.3,11.61-3.5,19.36-3.58-.12,0-.24,0-.36,0Zm57.5,322.5l-6.73-123.63-78.41-126.23c-2.69-4.03-5.04-9.08-7.06-15.13-2.02-6.06-3.03-12.67-3.03-19.84,0-9.42,2.8-18.05,8.41-25.9,.18-.24,.35-.49,.54-.72-3.29,3.49-6.44,7.97-9.47,13.45-3.5,6.33-7.09,14.33-10.75,24l-71.5,188L139.2,60.36c-3.68-9.67-7.25-17.67-10.75-24-3.5-6.33-7.18-11.33-11-15-3.84-3.67-8-6.17-12.5-7.5-4.5-1.33-9.43-2-14.75-2-11.68,0-21.43,3.33-29.25,10-7.84,6.67-12.25,19-13.25,37l-15,275.5c-.34,7,.5,12.92,2.5,17.75,2,4.83,4.66,8.67,8,11.5,3.32,2.83,7.16,4.91,11.5,6.25,4.32,1.33,8.66,2,13,2,8.66,0,16.57-2.75,23.75-8.25,7.16-5.5,11.07-15.25,11.75-29.25l8-152.5,60.5,158.5c4.32,11.33,9.32,19.42,15,24.25,5.66,4.83,13.5,7.25,23.5,7.25s17.91-2.42,23.75-7.25c5.82-4.83,10.91-12.92,15.25-24.25l60.5-158.5,8,152.5c.66,14,4.57,23.75,11.75,29.25,7.16,5.5,15.07,8.25,23.75,8.25,4.32,0,8.66-.67,13-2,4.32-1.34,8.16-3.42,11.5-6.25,3.32-2.83,6-6.67,8-11.5,2-4.83,2.82-10.75,2.5-17.75Z"/>
      <path class="cls-9" d="M301.94,22.89c.5-.54,1-1.05,1.51-1.53,2.62-2.52,5.37-4.49,8.24-5.9-4.05,1.79-7.3,4.27-9.75,7.43Zm346.73,45.11c-9.83,5.67-14.75,14.34-14.75,26,0,1.52,.05,3,.16,4.44l8.66-13.94c2.69-4.03,5.05-9.08,7.06-15.13,.26-.79,.51-1.59,.74-2.4-.63,.33-1.26,.68-1.87,1.03Zm-69.83-44.71c-8.52,7.63-16.59,17.49-24.21,29.6l-82.06,131.83L391.18,52.89c-7.63-12.11-15.7-21.97-24.22-29.6-8.52-7.62-20.18-11.43-34.97-11.43-.31,0-.62,0-.93,0,11.5,.06,21.13,3.39,28.89,9.99,7.82,6.67,12.25,19,13.25,37l8.27,151.87,44.01,70.85v164.13c0,18.83,4.93,31.95,14.8,39.34,9.86,7.4,20.62,11.1,32.29,11.1,5.82,0,11.65-.9,17.48-2.69s10.99-4.59,15.47-8.41c4.48-3.8,8.08-8.96,10.77-15.47,2.69-6.49,4.03-14.46,4.03-23.87v-164.13l69.42-111.76c-7.62-7.84-13.8-17.54-18.57-29.07-5.17-12.5-7.75-28.08-7.75-46.75,0-16,3.17-29.91,9.5-41.75,6.33-11.83,15-21.66,26-29.5,5.88-4.19,12.31-7.78,19.29-10.77-1.41-.08-2.88-.12-4.39-.12-14.8,0-26.47,3.81-34.98,11.43Z"/>
      <path class="cls-6" d="M801.42,197c-9-13.33-20.17-23.5-33.5-30.5-13.33-7-27.83-12.08-43.5-15.25-15.67-3.16-30.17-6.58-43.5-10.25-13.33-3.66-24.5-8.91-33.5-15.75-8.02-6.09-12.47-15.03-13.34-26.81l-44.34,71.38c.63,.66,1.27,1.3,1.93,1.93,8.5,8.17,18.17,14.59,29,19.25,10.83,4.67,21.92,8.5,33.25,11.5,11.33,3,22.42,5.67,33.25,8,10.83,2.34,20.5,5.25,29,8.75s15.33,8,20.5,13.5c5.17,5.5,7.75,12.92,7.75,22.25,0,17-5.75,28.84-17.25,35.5-11.5,6.67-26.08,10-43.75,10-15.67,0-28.83-1.33-39.5-4-10.67-2.66-19.83-5.5-27.5-8.5-7.67-3-14.42-5.83-20.25-8.5-5.83-2.66-11.58-4-17.25-4-16.33,0-24.5,8.34-24.5,25,0,10,4.17,18.75,12.5,26.25,8.33,7.5,18.92,13.67,31.75,18.5,12.83,4.84,26.75,8.5,41.75,11s29.33,3.75,43,3.75c18,0,35-1.75,51-5.25s30-9.41,42-17.75c12-8.33,21.42-19.33,28.25-33,6.83-13.66,10.25-30.66,10.25-51,0-24-4.5-42.66-13.5-56ZM644.42,23.63c5.6,7.85,8.41,16.48,8.41,25.9,0,6.24-.76,12.05-2.29,17.44,9.5-4.97,21.13-7.47,34.88-7.47,12,0,22.75,.84,32.25,2.5,9.5,1.67,18.08,3.59,25.75,5.75,7.67,2.17,14.67,4.09,21,5.75,6.33,1.67,12.33,2.5,18,2.5,16.33,0,24.5-8.33,24.5-25,0-10-4.25-18.25-12.75-24.75s-19-11.75-31.5-15.75-25.75-6.75-39.75-8.25-26.5-2.25-37.5-2.25c-17,0-32.92,1.84-47.75,5.5-6.9,1.7-13.39,3.87-19.46,6.48,12.45,.72,21.17,4.61,26.21,11.65Z"/>
    </g>
    <g>
      <path class="cls-2" d="M330.7,11.86c-5.68,0-10.68,.67-15,2-1.36,.42-2.69,.95-4,1.59,5.16-2.3,11.61-3.5,19.36-3.58-.12,0-.24,0-.36,0Zm57.5,322.5l-6.73-123.63-78.41-126.23c-2.69-4.03-5.04-9.08-7.06-15.13-2.02-6.06-3.03-12.67-3.03-19.84,0-9.42,2.8-18.05,8.41-25.9,.18-.24,.35-.49,.54-.72-3.29,3.49-6.44,7.97-9.47,13.45-3.5,6.33-7.09,14.33-10.75,24l-71.5,188L139.2,60.36c-3.68-9.67-7.25-17.67-10.75-24-3.5-6.33-7.18-11.33-11-15-3.84-3.67-8-6.17-12.5-7.5-4.5-1.33-9.43-2-14.75-2-11.68,0-21.43,3.33-29.25,10-7.84,6.67-12.25,19-13.25,37l-15,275.5c-.34,7,.5,12.92,2.5,17.75,2,4.83,4.66,8.67,8,11.5,3.32,2.83,7.16,4.91,11.5,6.25,4.32,1.33,8.66,2,13,2,8.66,0,16.57-2.75,23.75-8.25,7.16-5.5,11.07-15.25,11.75-29.25l8-152.5,60.5,158.5c4.32,11.33,9.32,19.42,15,24.25,5.66,4.83,13.5,7.25,23.5,7.25s17.91-2.42,23.75-7.25c5.82-4.83,10.91-12.92,15.25-24.25l60.5-158.5,8,152.5c.66,14,4.57,23.75,11.75,29.25,7.16,5.5,15.07,8.25,23.75,8.25,4.32,0,8.66-.67,13-2,4.32-1.34,8.16-3.42,11.5-6.25,3.32-2.83,6-6.67,8-11.5,2-4.83,2.82-10.75,2.5-17.75Z"/>
      <path class="cls-2" d="M301.94,22.89c.5-.54,1-1.05,1.51-1.53,2.62-2.52,5.37-4.49,8.24-5.9-4.05,1.79-7.3,4.27-9.75,7.43Zm346.73,45.11c-9.83,5.67-14.75,14.34-14.75,26,0,1.52,.05,3,.16,4.44l8.66-13.94c2.69-4.03,5.05-9.08,7.06-15.13,.26-.79,.51-1.59,.74-2.4-.63,.33-1.26,.68-1.87,1.03Zm-69.83-44.71c-8.52,7.63-16.59,17.49-24.21,29.6l-82.06,131.83L391.18,52.89c-7.63-12.11-15.7-21.97-24.22-29.6-8.52-7.62-20.18-11.43-34.97-11.43-.31,0-.62,0-.93,0,11.5,.06,21.13,3.39,28.89,9.99,7.82,6.67,12.25,19,13.25,37l8.27,151.87,44.01,70.85v164.13c0,18.83,4.93,31.95,14.8,39.34,9.86,7.4,20.62,11.1,32.29,11.1,5.82,0,11.65-.9,17.48-2.69s10.99-4.59,15.47-8.41c4.48-3.8,8.08-8.96,10.77-15.47,2.69-6.49,4.03-14.46,4.03-23.87v-164.13l69.42-111.76c-7.62-7.84-13.8-17.54-18.57-29.07-5.17-12.5-7.75-28.08-7.75-46.75,0-16,3.17-29.91,9.5-41.75,6.33-11.83,15-21.66,26-29.5,5.88-4.19,12.31-7.78,19.29-10.77-1.41-.08-2.88-.12-4.39-.12-14.8,0-26.47,3.81-34.98,11.43Z"/>
      <path class="cls-2" d="M801.42,197c-9-13.33-20.17-23.5-33.5-30.5-13.33-7-27.83-12.08-43.5-15.25-15.67-3.16-30.17-6.58-43.5-10.25-13.33-3.66-24.5-8.91-33.5-15.75-8.02-6.09-12.47-15.03-13.34-26.81l-44.34,71.38c.63,.66,1.27,1.3,1.93,1.93,8.5,8.17,18.17,14.59,29,19.25,10.83,4.67,21.92,8.5,33.25,11.5,11.33,3,22.42,5.67,33.25,8,10.83,2.34,20.5,5.25,29,8.75s15.33,8,20.5,13.5c5.17,5.5,7.75,12.92,7.75,22.25,0,17-5.75,28.84-17.25,35.5-11.5,6.67-26.08,10-43.75,10-15.67,0-28.83-1.33-39.5-4-10.67-2.66-19.83-5.5-27.5-8.5-7.67-3-14.42-5.83-20.25-8.5-5.83-2.66-11.58-4-17.25-4-16.33,0-24.5,8.34-24.5,25,0,10,4.17,18.75,12.5,26.25,8.33,7.5,18.92,13.67,31.75,18.5,12.83,4.84,26.75,8.5,41.75,11s29.33,3.75,43,3.75c18,0,35-1.75,51-5.25s30-9.41,42-17.75c12-8.33,21.42-19.33,28.25-33,6.83-13.66,10.25-30.66,10.25-51,0-24-4.5-42.66-13.5-56ZM644.42,23.63c5.6,7.85,8.41,16.48,8.41,25.9,0,6.24-.76,12.05-2.29,17.44,9.5-4.97,21.13-7.47,34.88-7.47,12,0,22.75,.84,32.25,2.5,9.5,1.67,18.08,3.59,25.75,5.75,7.67,2.17,14.67,4.09,21,5.75,6.33,1.67,12.33,2.5,18,2.5,16.33,0,24.5-8.33,24.5-25,0-10-4.25-18.25-12.75-24.75s-19-11.75-31.5-15.75-25.75-6.75-39.75-8.25-26.5-2.25-37.5-2.25c-17,0-32.92,1.84-47.75,5.5-6.9,1.7-13.39,3.87-19.46,6.48,12.45,.72,21.17,4.61,26.21,11.65Z"/>
    </g>
  </g>
  <path class="cls-5" d="M5.59,501.11c30.7-20.69,79.81-46.92,140.91-47.73,85.07-1.13,110.49,48.11,195.45,48.86,91.12,.81,92.62-55.55,182.95-57.95,102.88-2.74,139.88,69.33,229.55,53.41,48.72-8.65,84.21-38.16,105.68-60.23"/>
  <path class="cls-1" d="M5.59,501.11c30.7-20.69,79.81-46.92,140.91-47.73,85.07-1.13,110.49,48.11,195.45,48.86,91.12,.81,92.62-55.55,182.95-57.95,102.88-2.74,139.88,69.33,229.55,53.41,48.72-8.65,84.21-38.16,105.68-60.23"/>
</svg>